<?xml version="1.0" standalone="no"?>
<!DOCTYPE svg PUBLIC "-//W3C//DTD SVG 20010904//EN"
 "http://www.w3.org/TR/2001/REC-SVG-20010904/DTD/svg10.dtd">
<svg version="1.0" xmlns="http://www.w3.org/2000/svg"
 width="1080.000000pt" height="1080.000000pt" viewBox="0 0 1080.000000 1080.000000"
 preserveAspectRatio="xMidYMid meet">

<g transform="translate(0.000000,1080.000000) scale(0.100000,-0.100000)"
fill="#000000" stroke="none">
<path d="M3520 9359 c-287 -29 -623 -132 -866 -264 -696 -380 -1147 -1067
-1214 -1850 -8 -91 -10 -664 -8 -1925 3 -1664 5 -1803 21 -1900 88 -517 306
-949 657 -1301 183 -183 377 -322 615 -440 218 -107 394 -165 650 -212 l120
-22 1830 -3 c1296 -2 1864 0 1945 8 1098 107 1973 982 2080 2080 8 82 10 646
7 1950 -3 1808 -4 1837 -24 1945 -49 261 -106 434 -212 650 -304 617 -863
1066 -1532 1229 -265 64 -130 60 -2149 62 -1009 1 -1873 -2 -1920 -7z m3665
-1292 c496 -110 760 -399 861 -942 15 -80 19 -145 18 -320 -1 -195 -4 -236
-27 -356 -92 -473 -314 -939 -659 -1380 -421 -540 -936 -1007 -1568 -1424
-709 -468 -1478 -798 -2083 -895 -165 -27 -183 -34 -210 -81 -12 -21 -27 -41
-33 -43 -22 -8 -126 11 -135 25 -5 8 -7 24 -4 36 7 28 3 30 -93 42 -104 13
-203 47 -295 102 -166 98 -208 154 -215 284 -11 201 126 433 378 644 239 200
407 291 853 466 263 104 261 103 295 139 16 17 78 114 137 216 316 542 1039
1741 1243 2060 175 274 617 917 735 1068 14 18 -43 9 -210 -34 -534 -135
-1111 -394 -1608 -721 -243 -161 -365 -260 -420 -344 -26 -39 -51 -69 -58 -66
-41 13 -71 108 -56 177 48 215 570 630 1174 932 428 215 944 378 1350 427 50
6 101 13 115 15 14 3 111 3 215 1 155 -3 210 -8 300 -28z"/>
<path d="M6787 7750 c-10 -6 -46 -69 -82 -139 -88 -176 -135 -253 -344 -570
-209 -314 -359 -530 -546 -786 -314 -429 -729 -1039 -1025 -1505 -78 -124
-149 -232 -156 -241 -19 -21 -18 -39 2 -39 10 0 69 16 133 35 328 98 670 148
772 114 45 -16 79 -47 79 -75 0 -28 -10 -31 -125 -39 -220 -17 -495 -81 -809
-189 -136 -46 -196 -72 -218 -92 -16 -16 -108 -159 -205 -319 -97 -159 -254
-416 -348 -570 -210 -343 -239 -395 -223 -395 29 0 180 41 288 78 569 195
1160 502 1674 870 342 245 610 474 931 796 384 385 713 790 920 1131 172 283
351 716 386 929 40 249 -73 534 -296 744 -170 161 -396 247 -695 267 -62 4
-101 2 -113 -5z"/>
<path d="M3950 4022 c-370 -171 -718 -419 -878 -626 -68 -88 -129 -213 -137
-280 -13 -101 41 -189 132 -216 21 -7 106 -14 188 -17 148 -5 151 -5 178 18
14 13 89 139 165 279 77 140 219 394 316 564 98 169 180 314 183 322 9 23 -17
16 -147 -44z"/>
</g>
</svg>
